# xmcd CD database file
#
# Track frame offsets:
#	187
#	19100
#	39842
#	58745
#
# Disc length: 1058 seconds
#
# Revision: 0
# Processed by: cddbd v1.5.1PL2 Copyright (c) Steve Scherf et al.
# Submitted via: CDex 1.51
#
DISCID=28042004
DTITLE=島田歌穂 - 君にできること（ＬＡＤＹ　ＩＮ　ＲＥＤ）〜ＴＢＳ系ドラマＨＯＴＥＬ主題歌〜
DYEAR=1994
DGENRE=JPop
TTITLE0=君にできること（ＬＡＤＹ　ＩＮ　ＲＥＤ）
TTITLE1=真実の愛はただひとつだけ
TTITLE2=君にできること（カラオケ）
TTITLE3=真実の愛はただひとつだけ（カラオケ）
EXTD=YEAR: 1994/5/25
EXTT0=
EXTT1=
EXTT2=
EXTT3=
PLAYORDER=
